<?xml version="1.0" standalone="no"?>
<!DOCTYPE svg PUBLIC "-//W3C//DTD SVG 20010904//EN"
 "http://www.w3.org/TR/2001/REC-SVG-20010904/DTD/svg10.dtd">
<svg version="1.0" xmlns="http://www.w3.org/2000/svg"
 width="533.000000pt" height="300.000000pt" viewBox="0 0 533.000000 300.000000"
 preserveAspectRatio="xMidYMid meet">
<metadata>
Created by potrace 1.16, written by Peter Selinger 2001-2019
</metadata>
<g transform="translate(0.000000,300.000000) scale(0.100000,-0.100000)"
fill="#000000" stroke="none">
<path d="M2583 1773 c-19 -4 -23 -11 -23 -43 l0 -38 -75 -4 c-66 -3 -78 -7
-102 -31 -24 -24 -28 -36 -31 -103 -8 -147 26 -189 148 -188 36 1 77 6 93 12
l27 12 0 195 c0 107 -3 194 -7 194 -5 -1 -18 -4 -30 -6z m-39 -139 c13 -5 16
-23 16 -94 0 -117 -2 -120 -60 -120 -68 0 -84 21 -84 112 0 62 3 73 23 89 23
19 74 25 105 13z"/>
<path d="M1313 1619 l-193 -111 0 -154 c0 -85 2 -154 4 -154 3 0 21 9 40 21
l36 21 0 -69 c0 -71 10 -93 42 -93 23 0 277 146 301 172 15 18 17 44 17 229 0
196 -1 210 -20 229 -11 11 -23 20 -27 20 -5 0 -95 -50 -200 -111z"/>
<path d="M1825 1681 c-47 -20 -60 -49 -63 -140 -5 -143 40 -192 163 -176 50 6
55 9 55 31 0 22 -4 24 -53 24 -84 0 -97 15 -97 109 0 95 9 106 89 107 46 0 57
4 59 19 2 10 -2 21 -10 26 -16 11 -116 10 -143 0z"/>
<path d="M2080 1677 c-38 -19 -60 -72 -60 -148 0 -122 32 -163 130 -164 112 0
150 40 150 162 0 119 -37 163 -140 163 -30 0 -66 -6 -80 -13z m130 -57 c16
-16 20 -33 20 -92 0 -86 -14 -108 -71 -108 -58 0 -69 18 -69 110 0 70 2 81 22
94 31 22 74 20 98 -4z"/>
<path d="M2735 1681 c-46 -19 -60 -49 -63 -136 -7 -150 39 -193 191 -180 72 7
78 9 75 29 -3 19 -11 21 -87 26 -77 5 -86 7 -104 32 -12 15 -18 30 -15 34 5 4
150 21 211 24 11 0 8 58 -5 103 -16 53 -56 77 -128 76 -30 0 -64 -4 -75 -8z"/>
<path d="M3033 1678 l-33 -11 0 -148 0 -149 35 0 35 0 0 129 c0 139 1 141 56
141 13 0 24 4 24 9 0 5 3 16 6 25 5 13 -2 16 -42 15 -27 -1 -64 -6 -81 -11z"/>
<path d="M3230 1677 c-16 -8 -28 -26 -34 -50 -13 -51 13 -85 81 -108 77 -26
93 -37 93 -64 0 -43 -25 -56 -104 -54 -58 2 -72 -1 -74 -13 -3 -13 10 -18 60
-23 89 -9 138 8 156 57 12 30 12 40 0 64 -15 31 -21 35 -103 66 -57 22 -60 25
-60 57 0 30 4 36 30 43 17 5 51 6 76 2 48 -6 75 9 48 27 -21 13 -141 10 -169
-4z"/>
<path d="M3510 1677 c-38 -19 -60 -72 -60 -147 0 -129 54 -178 186 -165 60 5
74 10 74 23 0 15 -10 17 -78 14 -71 -4 -81 -2 -105 20 -14 12 -29 35 -32 49
l-6 26 106 7 c141 10 138 9 130 65 -10 64 -29 97 -66 110 -42 15 -118 14 -149
-2z m129 -32 c32 -16 41 -33 41 -76 0 -28 -2 -29 -49 -29 -26 0 -69 -3 -95 -6
-46 -7 -46 -6 -46 22 1 82 76 127 149 89z"/>
<path d="M3810 1677 l-35 -12 -3 -147 -3 -148 26 0 25 0 0 134 c0 84 4 137 11
141 5 4 37 8 71 8 90 2 98 -12 98 -164 0 -112 1 -119 20 -119 19 0 20 7 20
125 0 134 -8 166 -47 184 -31 14 -138 13 -183 -2z"/>
<path d="M4123 1680 c-47 -19 -58 -92 -20 -128 13 -12 46 -29 75 -37 57 -17
82 -37 82 -65 0 -35 -43 -53 -115 -48 -56 3 -65 2 -65 -13 0 -14 12 -19 54
-24 106 -13 166 18 166 87 0 48 -22 70 -91 93 -61 20 -89 40 -89 65 0 33 29
45 102 43 60 -1 69 1 66 15 -3 14 -17 17 -73 19 -39 1 -80 -2 -92 -7z"/>
<path d="M4405 1681 c-35 -15 -56 -47 -64 -101 -5 -29 -7 -60 -5 -69 1 -9 6
-32 9 -52 12 -76 74 -106 191 -94 52 6 64 11 64 25 0 15 -8 17 -70 12 -80 -5
-122 8 -139 44 -21 48 -17 51 89 58 136 9 133 8 128 73 -7 79 -37 106 -120
110 -35 1 -72 -1 -83 -6z m111 -31 c37 -14 53 -38 54 -77 0 -33 0 -33 -49 -33
-26 0 -69 -3 -95 -6 l-46 -7 0 31 c0 79 61 120 136 92z"/>
</g>
</svg>
